<?xml version="1.0" standalone="no"?><!DOCTYPE svg PUBLIC "-//W3C//DTD SVG 1.1//EN" "http://www.w3.org/Graphics/SVG/1.1/DTD/svg11.dtd"><svg t="1705643880402" class="icon" viewBox="0 0 1024 1024" version="1.1" xmlns="http://www.w3.org/2000/svg" p-id="5596" xmlns:xlink="http://www.w3.org/1999/xlink" width="200" height="200"><path d="M512 512m-512 0a512 512 0 1 0 1024 0 512 512 0 1 0-1024 0Z" fill="#1EADEC" p-id="5597"></path><path d="M633.201311 690.729967a78.495475 78.495475 0 1 0 78.512263 78.512263 78.596197 78.596197 0 0 0-78.512263-78.512263z m0 137.652459a59.224131 59.224131 0 1 1 59.224132-59.224131 59.291279 59.291279 0 0 1-59.224132 59.291279z m0 0" fill="#FFFFFF" p-id="5598"></path><path d="M633.201311 739.646951a29.595279 29.595279 0 1 0 29.578492 29.595279 29.628852 29.628852 0 0 0-29.578492-29.595279z m0 39.885639a10.307148 10.307148 0 1 1 10.307148-10.307147 10.307148 10.307148 0 0 1-10.307148 10.273573z m0 0" fill="#FFFFFF" p-id="5599"></path><path d="M305.152 511.026361v-90.649181H285.880656v91.186361l33.372328 335.536262h230.987541v-19.288131H336.744918z m0 0" fill="#FFFFFF" p-id="5600"></path><path d="M761.503475 189.473574l-37.93836 63.353705h-26.153967v-28.319476l-46.29823-34.262033H304.195148l-46.29823 34.262033v114.15082h27.983738v55.682098h19.288131v-55.463869h344.970492v172.149509l-14.973902 150.427278 19.18741 1.913705 15.108197-150.914098V338.67541h28.000524v-24.139541h61.121049l55.933902-93.351869z m-484.335213 44.753836l33.372328-24.693508h334.210099l33.372327 24.710295v23.115541H277.168262z m400.954754 85.159869H277.168262V276.647869h400.954754z m69.480918-24.156328h-50.192786V272.11541h37.082229l33.724853-56.185705 19.858885 11.901902z m0 0" fill="#FFFFFF" p-id="5601"></path><path d="M413.729574 517.757902l-6.714754-18.750951-18.16341 6.462951 17.223344 48.379803 48.430164-17.273705-6.462951-18.16341-15.796459 5.623607 47.506885-88.886558 29.242755 54.188066 16.971541-9.148853-46.281443-85.780983z m0 0" fill="#FFFFFF" p-id="5602"></path><path d="M473.121574 627.947016l-13.04341 13.04341 13.630951 13.630951 36.310033-36.310033-36.310033-36.310033-13.630951 13.630951 13.04341 13.04341h-87.073574l21.957246-40.69141-16.971541-9.165639-37.300459 69.128393z m0 0" fill="#FFFFFF" p-id="5603"></path><path d="M572.029902 505.889574l-50.075279-11.381508-11.381508 50.075278 18.801311 4.280656 3.542033-15.544656 40.456393 75.356328h-54.59095v19.271344h86.82177l-57.88118-107.738229 20.026754 4.549246z m0 0" fill="#FFFFFF" p-id="5604"></path><path d="M503.640131 750.659148h-19.288131v-19.288132h19.288131z m-32.130098 0h-19.288131v-19.288132h19.204196z m0 0" fill="#FFFFFF" p-id="5605"></path></svg>