<?xml version="1.0" standalone="no"?><!DOCTYPE svg PUBLIC "-//W3C//DTD SVG 1.1//EN" "http://www.w3.org/Graphics/SVG/1.1/DTD/svg11.dtd"><svg t="1705633190938" class="icon" viewBox="0 0 1024 1024" version="1.1" xmlns="http://www.w3.org/2000/svg" p-id="11642" xmlns:xlink="http://www.w3.org/1999/xlink" width="200" height="200"><path d="M0 0h1024v1024H0z" fill="#F7F8FF" p-id="11643"></path><path d="M505.856 372.736l-267.264-67.584c-7.168-2.048-12.288-9.216-10.24-17.408l59.392-238.592c2.048-7.168 9.216-12.288 17.408-10.24l267.264 67.584c7.168 2.048 12.288 9.216 10.24 17.408l-59.392 238.592c-2.048 7.168-10.24 11.264-17.408 10.24z" fill="#9BCAFC" p-id="11644"></path><path d="M363.52 378.88L133.12 428.032c-7.168 2.048-15.36-3.072-16.384-11.264L63.488 166.912c-2.048-7.168 3.072-15.36 11.264-16.384l231.424-49.152c7.168-2.048 15.36 3.072 16.384 11.264l53.248 249.856c1.024 7.168-4.096 14.336-12.288 16.384zM397.312 361.472l215.04 98.304c7.168 3.072 15.36 0 18.432-7.168L737.28 220.16c3.072-7.168 0-15.36-7.168-18.432l-215.04-98.304c-7.168-3.072-15.36 0-18.432 7.168L390.144 343.04c-3.072 7.168 0 15.36 7.168 18.432z" fill="#B5D8FE" p-id="11645"></path><path d="M751.616 362.496l-19.456 147.456L675.84 946.176c-3.072 22.528-21.504 38.912-44.032 38.912H194.56c-22.528 0-40.96-16.384-44.032-38.912l-74.752-583.68h675.84z" fill="#B5D8FE" p-id="11646"></path><path d="M809.984 551.936l-10.24-6.144M733.184 509.952l-56.32 436.224c-3.072 22.528-21.504 38.912-44.032 38.912h-24.576c-7.168-3.072-13.312-8.192-18.432-13.312-9.216-9.216-15.36-21.504-19.456-33.792-43.008-165.888 77.824-285.696 112.64-316.416-36.864-36.864-30.72-100.352-29.696-103.424 0-4.096 4.096-8.192 8.192-9.216 26.624-4.096 51.2-3.072 71.68 1.024zM746.496 402.432l5.12-39.936h-675.84l5.12 39.936z" fill="#9BCAFC" p-id="11647"></path><path d="M259.072 838.656H256c-14.336 0-26.624-12.288-26.624-26.624v-276.48c0-14.336 12.288-26.624 26.624-26.624h4.096c14.336 0 26.624 12.288 26.624 26.624v276.48c0 14.336-12.288 26.624-27.648 26.624zM415.744 836.608h-4.096c-14.336 0-26.624-12.288-26.624-26.624v-276.48c0-14.336 12.288-26.624 26.624-26.624h4.096c14.336 0 26.624 12.288 26.624 26.624v276.48c0 15.36-12.288 26.624-26.624 26.624zM571.392 838.656h-4.096c-14.336 0-26.624-12.288-26.624-26.624v-276.48c0-14.336 12.288-26.624 26.624-26.624h4.096c14.336 0 26.624 12.288 26.624 26.624v276.48c0 14.336-11.264 26.624-26.624 26.624z" fill="#B5D8FE" p-id="11648"></path><path d="M795.648 252.928v81.92c0 15.36-12.288 27.648-27.648 27.648H58.368c-15.36 0-27.648-12.288-27.648-27.648v-81.92C30.72 237.568 43.008 225.28 58.368 225.28h710.656c14.336 0 26.624 12.288 26.624 27.648zM259.072 836.608H256c-14.336 0-26.624-12.288-26.624-26.624v-276.48c0-14.336 12.288-26.624 26.624-26.624h4.096c14.336 0 26.624 12.288 26.624 26.624v276.48c0 15.36-12.288 26.624-27.648 26.624zM415.744 838.656h-4.096c-14.336 0-26.624-12.288-26.624-26.624v-276.48c0-14.336 12.288-26.624 26.624-26.624h4.096c14.336 0 26.624 12.288 26.624 26.624v276.48c0 14.336-12.288 26.624-26.624 26.624zM571.392 836.608h-4.096c-14.336 0-26.624-12.288-26.624-26.624v-276.48c0-14.336 12.288-26.624 26.624-26.624h4.096c14.336 0 26.624 12.288 26.624 26.624v276.48c0 15.36-11.264 26.624-26.624 26.624z" fill="#FFFFFF" p-id="11649"></path><path d="M967.68 934.912c-3.072 11.264-8.192 20.48-16.384 28.672v1.024c-13.312 13.312-32.768 20.48-52.224 20.48H693.248c-19.456 0-38.912-7.168-52.224-20.48l-1.024-1.024c-7.168-8.192-13.312-18.432-16.384-28.672-49.152-189.44 118.784-313.344 118.784-313.344h104.448S976.896 717.824 974.848 870.4" fill="#FFFFFF" p-id="11650"></path><path d="M743.424 621.568h104.448s53.248-44.032 36.864-101.376c0 0-28.672-4.096-50.176 20.48 0 0-58.368-32.768-126.976-20.48 0-1.024-8.192 69.632 35.84 101.376zM834.56 539.648l18.432 12.288" fill="#FFFFFF" p-id="11651"></path><path d="M924.672 859.136c0 57.344-47.104 104.448-104.448 104.448C763.904 962.56 716.8 916.48 716.8 859.136s47.104-104.448 104.448-104.448 103.424 47.104 103.424 104.448z" fill="#E9F1FE" p-id="11652"></path><path d="M804.864 836.608m-94.208 0a94.208 94.208 0 1 0 188.416 0 94.208 94.208 0 1 0-188.416 0Z" fill="#B5D8FE" p-id="11653"></path><path d="M36.864 974.848H20.48c-6.144 0-10.24 4.096-10.24 10.24s4.096 10.24 10.24 10.24h16.384c6.144 0 10.24-4.096 10.24-10.24s-4.096-10.24-10.24-10.24zM1003.52 974.848h-26.624c-6.144 0-10.24 4.096-10.24 10.24s4.096 10.24 10.24 10.24H1003.52c6.144 0 10.24-4.096 10.24-10.24s-5.12-10.24-10.24-10.24zM259.072 848.896c20.48 0 36.864-16.384 36.864-36.864v-1.024-276.48c0-20.48-16.384-36.864-36.864-36.864H256c-20.48 0-36.864 16.384-36.864 36.864V811.008c0 20.48 16.384 36.864 36.864 36.864h3.072zM256 519.168h4.096c9.216 0 16.384 7.168 16.384 16.384v274.432c0 9.216-7.168 16.384-16.384 16.384H256c-9.216 0-16.384-7.168-16.384-16.384V535.552c-1.024-9.216 7.168-16.384 16.384-16.384zM571.392 848.896c20.48 0 36.864-16.384 36.864-36.864V534.528c0-20.48-16.384-36.864-36.864-36.864h-4.096c-20.48 0-36.864 16.384-36.864 36.864V811.008c0 20.48 16.384 36.864 36.864 36.864h4.096z m-4.096-329.728h4.096c9.216 0 16.384 7.168 16.384 16.384v274.432c0 9.216-7.168 16.384-16.384 16.384h-4.096c-9.216 0-16.384-7.168-16.384-16.384V535.552c0-9.216 7.168-16.384 16.384-16.384zM415.744 848.896c20.48 0 36.864-16.384 36.864-36.864v-1.024-276.48c0-20.48-16.384-36.864-36.864-36.864h-4.096c-20.48 0-36.864 16.384-36.864 36.864V811.008c0 20.48 16.384 36.864 36.864 36.864h4.096z m-4.096-329.728h4.096c9.216 0 16.384 7.168 16.384 16.384v274.432c0 9.216-7.168 16.384-16.384 16.384h-4.096c-9.216 0-16.384-7.168-16.384-16.384V535.552c0-9.216 7.168-16.384 16.384-16.384z" fill="#077AF1" p-id="11654"></path><path d="M969.728 924.672c-5.12-1.024-11.264 2.048-12.288 7.168-2.048 9.216-7.168 17.408-13.312 23.552l-1.024 1.024c-11.264 11.264-26.624 17.408-44.032 17.408H693.248c-17.408 0-33.792-6.144-45.056-18.432-6.144-5.12-11.264-13.312-13.312-23.552-43.008-166.912 92.16-283.648 112.64-301.056h61.44c8.192 6.144 33.792 29.696 33.792 64.512 0 6.144 4.096 10.24 10.24 10.24s10.24-4.096 10.24-10.24c0-28.672-13.312-51.2-25.6-64.512h7.168c18.432 14.336 122.88 104.448 120.832 238.592 0 6.144 4.096 10.24 10.24 10.24 5.12 0 10.24-4.096 10.24-10.24 2.048-133.12-92.16-223.232-122.88-249.856 15.36-16.384 45.056-55.296 31.744-103.424-1.024-4.096-4.096-7.168-8.192-7.168-1.024 0-29.696-4.096-54.272 18.432-14.336-7.168-48.128-20.48-89.088-21.504l17.408-134.144h8.192c20.48 0 37.888-16.384 37.888-37.888v-81.92c0-20.48-16.384-37.888-37.888-37.888h-20.48c0-3.072 0-6.144-1.024-10.24-2.048-6.144-7.168-11.264-12.288-13.312L593.92 125.952v-1.024c2.048-6.144 1.024-13.312-3.072-18.432-3.072-5.12-8.192-9.216-15.36-11.264L307.2 29.696c-6.144-2.048-13.312-1.024-18.432 3.072-5.12 3.072-9.216 8.192-11.264 15.36l-13.312 52.224L71.68 140.288c-13.312 3.072-21.504 15.36-18.432 28.672l10.24 46.08h-5.12c-20.48 0-37.888 16.384-37.888 37.888v81.92c0 20.48 16.384 37.888 37.888 37.888h8.192l10.24 76.8c1.024 5.12 6.144 9.216 11.264 9.216 5.12-1.024 9.216-6.144 9.216-11.264l-9.216-74.752h653.312l-17.408 135.168c-5.12 0-11.264 1.024-16.384 2.048-4.096 1.024-8.192 4.096-8.192 9.216 0 2.048-5.12 44.032 13.312 79.872l-6.144 44.032c-47.104 49.152-126.976 155.648-91.136 294.912 3.072 12.288 10.24 24.576 19.456 33.792l3.072 3.072H194.56c-17.408 0-31.744-13.312-33.792-29.696l-56.32-437.248c-1.024-5.12-6.144-9.216-11.264-9.216-5.12 1.024-9.216 6.144-9.216 11.264l56.32 437.248c1.024 10.24 5.12 19.456 11.264 26.624h-71.68c-6.144 0-10.24 4.096-10.24 10.24s4.096 10.24 10.24 10.24h857.088c6.144 0 10.24-4.096 10.24-10.24 0-1.024 0-2.048-1.024-3.072 4.096-3.072 8.192-6.144 12.288-10.24l1.024-1.024c8.192-9.216 15.36-20.48 18.432-32.768 1.024-5.12-2.048-10.24-8.192-12.288zM728.064 212.992v3.072H459.776l46.08-100.352 2.048-2.048h3.072l215.04 98.304c1.024-1.024 1.024 0 2.048 1.024z m-155.648-95.232l-5.12-2.048 3.072 1.024c1.024 0 2.048 1.024 2.048 1.024zM297.984 52.224c0-1.024 1.024-2.048 2.048-2.048 0 0 1.024-1.024 2.048-1.024h1.024l191.488 48.128c-3.072 2.048-5.12 5.12-7.168 9.216L437.248 215.04h-82.944l-22.528-105.472c-1.024-6.144-5.12-12.288-10.24-15.36-5.12-3.072-12.288-5.12-18.432-3.072l-16.384 3.072 11.264-41.984z m-225.28 112.64c0-2.048 1.024-4.096 3.072-4.096 239.616-51.2 231.424-49.152 232.448-49.152 2.048 0 3.072 1.024 4.096 3.072l21.504 101.376H83.968l-11.264-51.2zM40.96 334.848v-81.92c0-9.216 8.192-17.408 17.408-17.408h710.656c9.216 0 17.408 8.192 17.408 17.408v81.92c0 9.216-7.168 17.408-17.408 17.408H58.368c-9.216 0-17.408-8.192-17.408-17.408z m676.864 193.536c59.392-7.168 110.592 19.456 111.616 20.48l18.432 11.264c5.12 3.072 11.264 2.048 14.336-3.072 3.072-5.12 2.048-11.264-3.072-14.336l-7.168-4.096c9.216-7.168 19.456-8.192 25.6-9.216 7.168 40.96-23.552 72.704-32.768 81.92h-59.392c-17.408-21.504-15.36-54.272-15.36-54.272 0-6.144-4.096-10.24-9.216-11.264-6.144 0-10.24 4.096-11.264 9.216 0 1.024-2.048 30.72 12.288 56.32H747.52c-28.672-22.528-30.72-65.536-29.696-82.944z" fill="#077AF1" p-id="11655"></path><path d="M701.44 836.608c0 57.344 47.104 104.448 104.448 104.448s104.448-47.104 104.448-104.448-47.104-104.448-104.448-104.448-104.448 47.104-104.448 104.448z m187.392 0c0 46.08-37.888 83.968-83.968 83.968s-83.968-37.888-83.968-83.968 37.888-83.968 83.968-83.968 83.968 37.888 83.968 83.968z" fill="#077AF1" p-id="11656"></path></svg>