<?xml version="1.0" standalone="no"?><!DOCTYPE svg PUBLIC "-//W3C//DTD SVG 1.1//EN" "http://www.w3.org/Graphics/SVG/1.1/DTD/svg11.dtd"><svg t="1705644059182" class="icon" viewBox="0 0 1027 1024" version="1.1" xmlns="http://www.w3.org/2000/svg" p-id="6809" xmlns:xlink="http://www.w3.org/1999/xlink" width="200.5859375" height="200"><path d="M621.710469 804.579063a36.445465 36.445465 0 0 1-36.552344-36.552343V365.683749a36.552343 36.552343 0 1 1 73.158126 0v402.289531a36.445465 36.445465 0 0 1-36.552343 36.552344z m-219.420938 0a36.445465 36.445465 0 0 1-36.552343-36.552343V365.683749a36.552343 36.552343 0 1 1 73.158126 0v402.289531a36.445465 36.445465 0 0 1-36.552344 36.552344zM987.394218 182.868594h-182.815155V109.710469A109.496712 109.496712 0 0 0 695.72362 0h-366.592214a109.924225 109.924225 0 0 0-109.710469 109.710469v73.158125H36.552343a36.552343 36.552343 0 1 0 0 73.158126h950.841875a36.552343 36.552343 0 1 0 0-73.158126z m-694.708277-73.158125a36.659221 36.659221 0 0 1 36.552343-36.552344h366.592214a35.750757 35.750757 0 0 1 35.697317 36.552344v73.158125H292.579063z m475.607974 914.289531h-511.946561a109.924225 109.924225 0 0 1-109.710468-109.710469V365.149358a36.552343 36.552343 0 1 1 73.158125 0v549.140173a36.659221 36.659221 0 0 0 36.552343 36.552344h511.946561a36.659221 36.659221 0 0 0 36.552343-36.552344V366.699092a36.552343 36.552343 0 0 1 73.158126 0v547.590439a110.137981 110.137981 0 0 1-109.870786 109.710469z m0 0" fill="#66b1ff" p-id="6810"></path></svg>